<?xml version="1.0" encoding="utf-8"?>
<!-- Generator: Adobe Illustrator 26.0.2, SVG Export Plug-In . SVG Version: 6.00 Build 0)  -->
<svg version="1.1" xmlns="http://www.w3.org/2000/svg" xmlns:xlink="http://www.w3.org/1999/xlink" x="0px" y="0px"
	 viewBox="0 0 1053.12 1142.8" style="enable-background:new 0 0 1053.12 1142.8;" xml:space="preserve">
<style type="text/css">
	.st0{fill:#EBEBEB;}
	.st1{fill:none;stroke:#231F20;}
	.st2{fill:#231F20;stroke:#231F20;stroke-width:1.07;stroke-linejoin:round;stroke-miterlimit:10;}
	.st3{fill:#231F20;stroke:#231F20;stroke-width:0.75;stroke-linecap:round;stroke-linejoin:round;stroke-miterlimit:10;}
	.st4{fill:none;stroke:#9A9DCE;stroke-width:4;stroke-linejoin:round;stroke-miterlimit:10;}
	.st5{fill:none;stroke:#EEAD62;stroke-width:1.07;stroke-linejoin:round;stroke-miterlimit:10;}
	.st6{fill:none;stroke:#EEAD62;stroke-width:4;stroke-linejoin:round;stroke-miterlimit:10;}
	.st7{opacity:0.2;}
	.st8{fill:none;stroke:#0E0807;stroke-width:4;stroke-linejoin:round;}
	.st9{fill:none;stroke:#0E0807;stroke-width:4;stroke-linejoin:round;stroke-dasharray:3.9455,1.9728;}
	.st10{fill:none;stroke:#0E0807;stroke-width:4;stroke-linejoin:round;stroke-dasharray:3.1211,1.5606;}
	.st11{fill:none;stroke:#0E0807;stroke-width:4;stroke-linejoin:round;stroke-dasharray:4.1078,2.0539;}
	.st12{fill:none;stroke:#0E0807;stroke-width:4;stroke-linejoin:round;stroke-dasharray:3.5723,1.7861;}
	.st13{fill:none;stroke:#0E0807;stroke-width:4;stroke-linejoin:round;stroke-dasharray:4.0499,2.025;}
	.st14{fill:none;stroke:#0E0807;stroke-width:4;stroke-linejoin:round;stroke-dasharray:3.9427,1.9713;}
	.st15{fill:none;stroke:#0E0807;stroke-width:4;stroke-linejoin:round;stroke-dasharray:3.255,1.6275;}
	.st16{fill:none;stroke:#0E0807;stroke-width:4;stroke-linejoin:round;stroke-dasharray:4.8636,2.4318;}
	.st17{fill:none;stroke:#0E0807;stroke-width:4;stroke-linejoin:round;stroke-dasharray:4.1943,2.0972;}
	.st18{fill:none;stroke:#0E0807;stroke-width:4;stroke-linejoin:round;stroke-dasharray:4.3568,2.1784;}
	.st19{fill:none;stroke:#0E0807;stroke-width:4;stroke-linejoin:round;stroke-dasharray:3.9464,1.9732;}
	.st20{fill:none;stroke:#0E0807;stroke-width:4;stroke-linejoin:round;stroke-dasharray:4.1345,2.0673;}
	.st21{fill:none;stroke:#0E0807;stroke-width:4;stroke-linejoin:round;stroke-dasharray:3.8296,1.9148;}
	.st22{fill:none;stroke:#0E0807;stroke-width:4;stroke-linejoin:round;stroke-dasharray:3.8617,1.9308;}
	.st23{fill:none;stroke:#0E0807;stroke-width:4;stroke-linejoin:round;stroke-dasharray:4.1111,2.0556;}
	.st24{fill:none;stroke:#0E0807;stroke-width:4;stroke-linejoin:round;stroke-dasharray:4.045,2.0225;}
	.st25{fill:none;stroke:#0E0807;stroke-width:4;stroke-linejoin:round;stroke-dasharray:3.9569,1.9784;}
	.st26{fill:none;stroke:#0E0807;stroke-width:4;stroke-linejoin:round;stroke-dasharray:2.1,1.05;}
	.st27{fill:none;stroke:#0E0807;stroke-width:4;stroke-linejoin:round;stroke-dasharray:4.4946,2.2473;}
	.st28{fill:none;stroke:#0E0807;stroke-width:4;stroke-linejoin:round;stroke-dasharray:4.1235,2.0617;}
	.st29{fill:none;stroke:#0E0807;stroke-width:4;stroke-linejoin:round;stroke-dasharray:4.1288,2.0644;}
	.st30{fill:none;stroke:#0E0807;stroke-width:4;stroke-linejoin:round;stroke-dasharray:2.6426,1.3213;}
	.st31{fill:none;stroke:#0E0807;stroke-width:4;stroke-linejoin:round;stroke-dasharray:3.0673,1.5337;}
	.st32{fill:none;stroke:#0E0807;stroke-width:4;stroke-linejoin:round;stroke-dasharray:3.7489,1.8745;}
	.st33{fill:none;stroke:#0E0807;stroke-width:4;stroke-linejoin:round;stroke-dasharray:4.2195,2.1097;}
	.st34{fill:none;stroke:#0E0807;stroke-width:4;stroke-linejoin:round;stroke-dasharray:4.1385,2.0693;}
	.st35{fill:none;stroke:#0E0807;stroke-width:4;stroke-linejoin:round;stroke-dasharray:3.8935,1.9468;}
	.st36{fill:none;stroke:#0E0807;stroke-width:4;stroke-linejoin:round;stroke-dasharray:3.7163,1.8581;}
	.st37{fill:none;stroke:#0E0807;stroke-width:4;stroke-linejoin:round;stroke-dasharray:3.547,1.7735;}
	.st38{fill:none;stroke:#0E0807;stroke-width:4;stroke-linejoin:round;stroke-dasharray:4.1555,2.0777;}
	.st39{fill:none;stroke:#0E0807;stroke-width:4;stroke-linejoin:round;stroke-dasharray:3.7575,1.8788;}
	.st40{fill:none;stroke:#0E0807;stroke-width:4;stroke-linejoin:round;stroke-dasharray:4.497,2.2485;}
	.st41{fill:none;stroke:#0E0807;stroke-width:4;stroke-linejoin:round;stroke-dasharray:4.013,2.0065;}
	.st42{fill:none;stroke:#0E0807;stroke-width:4;stroke-linejoin:round;stroke-dasharray:4.1225,2.0612;}
	.st43{fill:none;stroke:#0E0807;stroke-width:4;stroke-linejoin:round;stroke-dasharray:4.3797,2.1898;}
	.st44{fill:none;stroke:#0E0807;stroke-width:4;stroke-linejoin:round;stroke-dasharray:4.5631,2.2815;}
	.st45{fill:none;stroke:#0E0807;stroke-width:4;stroke-linejoin:round;stroke-dasharray:2.7466,1.3733;}
	.st46{fill:none;stroke:#0E0807;stroke-width:4;stroke-linejoin:round;stroke-dasharray:3.9005,1.9503;}
	.st47{fill:none;stroke:#0E0807;stroke-width:4;stroke-linejoin:round;stroke-dasharray:2.0867,1.0433;}
	.st48{fill:none;stroke:#0E0807;stroke-width:4;stroke-linejoin:round;stroke-dasharray:5.284,2.642;}
	.st49{fill:none;stroke:#0E0807;stroke-width:4;stroke-linejoin:round;stroke-dasharray:3.5834,1.7917;}
	.st50{fill:none;stroke:#0E0807;stroke-width:4;stroke-linejoin:round;stroke-dasharray:4.1921,2.0961;}
	.st51{fill:none;stroke:#0E0807;stroke-width:4;stroke-linejoin:round;stroke-dasharray:4.1561,2.0781;}
	.st52{fill:none;stroke:#0E0807;stroke-width:4;stroke-linejoin:round;stroke-dasharray:4.4593,2.2296;}
	.st53{fill:none;stroke:#0E0807;stroke-width:4;stroke-linejoin:round;stroke-dasharray:4.5993,2.2996;}
	.st54{fill:none;stroke:#0E0807;stroke-width:4;stroke-linejoin:round;stroke-dasharray:3.7771,1.8885;}
	.st55{fill:none;stroke:#0E0807;stroke-width:4;stroke-linejoin:round;stroke-dasharray:4.0054,2.0027;}
	.st56{fill:none;stroke:#0E0807;stroke-width:4;stroke-linejoin:round;stroke-dasharray:3.7808,1.8904;}
	.st57{fill:none;stroke:#0E0807;stroke-width:4;stroke-linejoin:round;stroke-dasharray:4.0034,2.0017;}
	.st58{fill:none;stroke:#0E0807;stroke-width:4;stroke-linejoin:round;stroke-dasharray:3.9877,1.9939;}
	.st59{fill:none;stroke:#0E0807;stroke-width:4;stroke-linejoin:round;stroke-dasharray:4.3752,2.1876;}
	.st60{fill:none;stroke:#0E0807;stroke-width:4;stroke-linejoin:round;stroke-dasharray:3.6947,1.8473;}
	.st61{fill:none;stroke:#333333;stroke-width:1.07;stroke-linejoin:round;stroke-miterlimit:10;}
	.st62{fill:#4D4D4D;}
	.st63{font-family:'ArialMT';}
	.st64{font-size:20px;}
	.st65{fill:none;stroke:#000000;stroke-linejoin:round;stroke-miterlimit:10;stroke-dasharray:3,6;}
	.st66{fill:none;stroke:#000000;stroke-width:1.07;stroke-linejoin:round;stroke-miterlimit:10;}
	.st67{font-size:17.5px;}
	.st68{font-size:30px;}
	.st69{font-size:22.5px;}
	.st70{fill:none;stroke:#000000;}
	.st71{fill:none;stroke:#000000;stroke-width:0.5;}
</style>
<g id="Layer_1">
	<g>
		<g id="grid_lines">
			<line class="st2" x1="48.32" y1="1089.41" x2="1040.69" y2="1089.41"/>
			<line class="st3" x1="28.32" y1="694.76" x2="1040.69" y2="694.76"/>
			<line class="st3" x1="25.82" y1="300.08" x2="1040.69" y2="300.08"/>
		</g>
		<g id="lines">
			<polyline class="st4" points="147.99,1089.33 149.17,1089.33 150.32,1089.33 151.49,1089.33 152.64,1089.26 153.79,1089.26 
				154.97,1088.66 156.12,1088.61 157.29,1088.61 158.44,1086.56 159.62,1087.16 160.77,1087.68 161.94,1087.46 163.09,1087.06 
				164.24,1086.91 165.42,1086.68 166.57,1086.93 167.74,1086.66 168.89,1086.46 170.07,1086.11 171.22,1085.71 172.39,1085.68 
				173.54,1085.51 174.69,1083.91 175.87,1083.41 177.02,1082.83 178.19,1082.96 179.34,1082.76 180.52,1080.68 181.67,1080.73 
				182.82,1080.28 183.99,1077.93 185.14,1076.88 186.32,1074.13 187.47,1071.28 188.64,1069.06 189.79,1068.33 190.97,1067.81 
				192.12,1067.98 193.27,1068.46 194.44,1068.63 195.59,1067.73 196.77,1069.33 197.92,1069.08 199.09,1072.21 200.24,1069.56 
				201.42,1069.21 202.57,1068.58 203.72,1068.21 204.89,1067.06 206.04,1066.66 207.22,1067.13 208.37,1068.26 209.54,1067.81 
				210.69,1067.06 211.87,1067.06 213.02,1065.86 214.17,1063.56 215.34,1055.73 216.49,1057.36 217.67,1054.96 218.82,1056.86 
				219.99,1057.56 221.14,1057.73 222.32,1063.41 223.47,1063.51 224.62,1064.11 225.79,1073.86 226.94,1074.21 228.12,1073.38 
				229.27,1073.43 230.44,1073.73 231.59,1075.91 232.77,1076.01 233.92,1076.56 235.07,1077.88 236.24,1078.01 237.39,1078.03 
				238.57,1078.08 239.72,1078.53 240.89,1077.36 242.04,1077.61 243.22,1077.23 244.37,1076.93 245.52,1076.01 246.69,1075.96 
				247.84,1075.26 249.02,1075.93 250.17,1074.83 251.34,1073.71 252.49,1073.26 253.67,1074.38 254.82,1074.88 255.97,1075.31 
				257.14,1075.83 258.29,1076.28 259.47,1075.78 260.62,1076.01 261.79,1075.81 262.94,1076.33 264.12,1076.68 265.27,1076.43 
				266.42,1076.18 267.59,1075.56 268.74,1076.23 269.92,1076.08 271.07,1077.08 272.24,1076.68 273.39,1075.93 274.54,1075.48 
				275.72,1074.46 276.87,1074.21 278.04,1074.83 279.19,1074.18 280.37,1073.53 281.52,1073.21 282.69,1073.11 283.84,1072.81 
				284.99,1072.58 286.17,1073.33 287.32,1068.91 288.49,1068.18 289.64,1065.78 290.82,1063.43 291.97,1058.86 293.14,1056.61 
				294.29,1054.78 295.44,1052.16 296.62,1047.73 297.77,1045.43 298.94,1043.66 300.09,1041.98 301.27,1042.26 302.42,1038.73 
				303.59,1039.98 304.74,1040.93 305.89,1040.31 307.07,1040.26 308.22,1038.61 309.39,1038.63 310.54,1042.13 311.72,1041.28 
				312.87,1042.41 314.04,1042.46 315.19,1040.71 316.34,1038.43 317.52,1037.93 318.67,1036.91 319.84,1036.13 320.99,1032.61 
				322.17,1032.08 323.32,1031.78 324.49,1034.58 325.64,1035.13 326.79,1034.51 327.97,1033.58 329.12,1034.88 330.29,1032.03 
				331.44,1033.76 332.62,1035.93 333.77,1035.46 334.94,1036.41 336.09,1039.11 337.24,1039.23 338.42,1041.33 339.57,1038.41 
				340.74,1036.53 341.89,1035.21 343.07,1035.18 344.22,1036.36 345.39,1037.68 346.54,1031.11 347.69,1031.53 348.87,1030.83 
				350.02,1027.83 351.19,1029.86 352.34,1029.38 353.52,1023.98 354.67,1026.41 355.84,1024.06 356.99,1020.98 358.14,1022.76 
				359.32,1023.33 360.47,1024.08 361.64,1028.38 362.79,1033.66 363.97,1034.31 365.12,1033.11 366.27,1030.71 367.44,1031.06 
				368.59,1031.28 369.77,1023.43 370.92,1020.61 372.09,1021.83 373.24,1023.28 374.42,1022.63 375.57,1023.86 376.72,1024.06 
				377.89,1024.96 379.04,1021.98 380.22,1023.31 381.37,1023.43 382.54,1025.33 383.69,1026.56 384.87,1025.88 386.02,1024.01 
				387.17,1026.36 388.34,1026.81 389.49,1021.93 390.67,1019.33 391.82,1017.66 392.99,1017.58 394.14,1016.28 395.32,1013.28 
				396.47,1007.11 397.62,1006.33 398.79,1003.08 399.94,1001.36 401.12,999.51 402.27,995.08 403.44,987.06 404.59,986.23 
				405.77,981.98 406.92,983.23 408.07,983.26 409.24,976.63 410.39,973.23 411.57,971.73 412.72,966.56 413.89,964.06 
				415.04,963.26 416.22,961.68 417.37,959.06 418.52,951.31 419.69,941.78 420.84,937.61 422.02,932.88 423.17,930.23 
				424.34,930.23 425.49,931.21 426.67,930.86 427.82,938.28 428.97,929.71 430.14,922.51 431.29,920.73 432.47,920.91 
				433.62,908.91 434.79,897.71 435.94,888.68 437.12,886.18 438.27,872.33 439.42,863.21 440.59,861.96 441.74,859.61 
				442.92,849.48 444.07,847.16 445.24,828.86 446.39,831.53 447.57,828.66 448.72,828.33 449.87,826.13 451.04,825.06 
				452.19,830.78 453.37,832.61 454.52,865.01 455.69,881.56 456.84,872.86 457.99,866.06 459.17,848.56 460.32,829.36 
				461.49,818.61 462.64,796.16 463.82,780.86 464.97,782.36 466.14,781.01 467.29,794.11 468.44,807.83 469.62,809.98 
				470.77,814.78 471.94,817.58 473.09,823.21 474.27,828.21 475.42,836.26 476.59,836.56 477.74,844.33 478.89,857.18 
				480.07,856.68 481.22,860.38 482.39,859.33 483.54,859.58 484.72,857.78 485.87,858.96 487.04,859.38 488.19,909.48 
				489.34,907.76 490.52,916.06 491.67,913.26 492.84,900.38 493.99,899.48 495.17,898.03 496.32,872.18 497.49,859.76 
				498.64,839.66 499.79,841.63 500.97,823.23 502.12,804.78 503.29,790.93 504.44,749.51 505.62,746.06 506.77,754.93 
				507.94,758.66 509.09,773.28 510.24,788.41 511.42,803.51 512.57,813.31 513.74,824.51 514.89,832.41 516.07,829.91 
				517.22,838.28 518.39,837.01 519.54,846.28 520.69,849.28 521.87,851.48 523.02,851.88 524.19,848.56 525.34,858.06 
				526.52,867.68 527.67,871.23 528.84,875.73 529.99,876.36 531.14,876.08 532.32,883.88 533.47,882.76 534.64,884.68 
				535.79,881.18 536.97,889.63 538.12,892.18 539.29,899.88 540.44,895.51 541.59,897.88 542.77,904.46 543.92,919.06 
				545.09,927.21 546.24,929.93 547.42,938.61 548.57,952.98 549.72,973.23 550.89,987.11 552.04,988.73 553.22,986.28 
				554.37,987.71 555.54,988.28 556.69,991.33 557.87,983.78 559.02,967.46 560.17,976.28 561.34,978.03 562.49,982.48 
				563.67,989.28 564.82,990.03 565.99,994.68 567.14,973.28 568.32,973.03 569.47,977.36 570.62,974.28 571.79,993.91 
				572.94,1002.53 574.12,989.86 575.27,976.01 576.44,977.31 577.59,971.38 578.77,963.76 579.92,961.78 581.07,964.31 
				582.24,951.58 583.39,950.06 584.57,945.83 585.72,988.36 586.89,1001.31 588.04,1010.03 589.22,1021.66 590.37,1022.48 
				591.52,1029.68 592.69,1032.76 593.84,1032.63 595.02,1031.68 596.17,1032.48 597.34,1031.03 598.49,1032.61 599.67,1031.28 
				600.82,1028.33 601.97,1022.53 603.14,1022.56 604.29,1025.63 605.47,1027.93 606.62,1025.21 607.79,1026.63 608.94,1030.06 
				610.12,1028.91 611.27,1035.78 612.42,1035.08 613.59,1033.93 614.74,1036.21 615.92,1034.21 617.07,1034.56 618.24,1032.86 
				619.39,1034.83 620.57,1034.18 621.72,1035.66 622.87,1035.58 624.04,1038.66 625.19,1038.98 626.37,1040.48 627.52,1038.81 
				628.69,1039.16 629.84,1039.08 631.02,1039.23 632.17,1039.51 633.32,1036.68 634.49,1037.13 635.64,1036.78 636.82,1037.46 
				637.97,1035.38 639.14,1035.01 640.29,1034.38 641.44,1035.58 642.62,1036.56 643.77,1037.61 644.94,1038.36 646.09,1039.48 
				647.27,1040.68 648.42,1041.33 649.59,1041.88 650.74,1044.28 651.89,1045.71 653.07,1045.33 654.22,1046.56 655.39,1045.83 
				656.54,1047.86 657.72,1049.03 658.87,1051.33 660.04,1050.13 661.19,1052.06 662.34,1054.51 663.52,1054.01 664.67,1054.36 
				665.84,1056.86 666.99,1056.41 668.17,1056.48 669.32,1057.76 670.49,1062.51 671.64,1063.78 672.79,1064.61 673.97,1064.96 
				675.12,1065.31 676.29,1065.31 677.44,1066.81 678.62,1064.56 679.77,1063.73 680.94,1065.23 682.09,1064.86 683.24,1063.31 
				684.42,1063.61 685.57,1063.68 686.74,1066.28 687.89,1065.83 689.07,1066.88 690.22,1069.68 691.39,1070.46 692.54,1069.83 
				693.69,1071.76 694.87,1072.41 696.02,1072.48 697.19,1072.01 698.34,1072.36 699.52,1072.36 700.67,1072.36 701.84,1072.33 
				702.99,1072.53 704.14,1071.71 705.32,1070.38 706.47,1071.03 707.64,1071.03 708.79,1071.03 709.97,1071.03 711.12,1072.96 
				712.29,1070.68 713.44,1071.06 714.59,1067.01 715.77,1067.01 716.92,1067.01 718.09,1067.66 719.24,1060.96 720.42,1057.41 
				721.57,1053.13 722.74,1049.46 723.89,1049.46 725.04,1049.46 726.22,1046.73 727.37,1038.71 728.54,1032.13 729.69,1029.58 
				730.87,1022.11 732.02,1022.11 733.17,1022.11 734.34,1007.96 735.49,1008.23 736.67,1001.76 737.82,994.36 738.99,988.13 
				740.14,985.68 741.32,985.68 742.47,968.78 743.62,960.83 744.79,946.23 745.94,935.71 747.12,917.08 748.27,918.86 
				749.44,919.23 750.59,891.08 751.77,880.26 752.92,869.51 754.07,864.36 755.24,849.36 756.39,842.63 757.57,842.61 
				758.72,827.51 759.89,821.33 761.04,810.93 762.22,785.73 763.37,777.93 764.52,778.41 765.69,777.53 766.84,754.73 
				768.02,741.61 769.17,718.81 770.34,717.61 771.49,708.41 772.67,696.71 773.82,696.48 774.97,680.76 776.14,668.43 
				777.29,669.28 778.47,665.91 779.62,669.21 780.79,672.61 781.94,672.43 783.12,672.66 784.27,693.63 785.42,712.98 
				786.59,709.13 787.74,701.83 788.92,705.38 790.07,705.38 791.24,723.08 792.39,694.48 793.57,684.18 794.72,691.68 
				795.87,689.03 797.04,690.03 798.19,690.68 799.37,707.28 800.52,712.11 801.69,720.68 802.84,730.31 804.02,753.83 
				805.17,757.06 806.32,757.28 807.49,787.48 808.64,792.08 809.82,804.93 810.97,822.73 812.14,818.96 813.29,820.66 
				814.47,820.66 815.62,838.81 816.77,854.41 817.94,863.03 819.09,860.16 820.27,885.06 821.42,885.06 822.59,885.06 
				823.74,901.33 824.89,902.18 826.07,889.33 827.22,888.41 828.39,902.98 829.54,902.96 830.72,902.96 831.87,920.03 
				833.04,927.41 834.19,945.68 835.34,955.13 836.52,959.06 837.67,961.68 838.84,961.68 839.99,974.51 841.17,971.13 
				842.32,969.01 843.49,966.16 844.64,966.06 845.79,964.58 846.97,964.58 848.12,964.03 849.29,964.18 850.44,971.46 
				851.62,976.11 852.77,975.11 853.94,975.11 855.09,975.11 856.24,991.48 857.42,993.33 858.57,982.68 859.74,985.33 
				860.89,989.06 862.07,991.48 863.22,991.48 864.39,984.73 865.54,978.73 866.69,969.93 867.87,963.38 869.02,960.63 
				870.19,965.33 871.34,965.33 872.52,954.41 873.67,949.63 874.84,950.81 875.99,952.71 877.14,952.71 878.32,952.71 
				879.47,952.71 880.64,965.81 881.79,958.56 882.97,940.31 884.12,928.93 885.29,916.81 886.44,914.66 887.59,914.66 
				888.77,875.31 889.92,867.51 891.09,866.38 892.24,866.93 893.42,869.53 894.57,869.53 895.74,869.53 896.89,887.68 
				898.04,899.96 899.22,903.53 900.37,907.81 901.54,913.08 902.69,913.08 903.87,913.08 905.02,904.53 906.19,898.81 
				907.34,904.16 908.49,906.41 909.67,906.41 910.82,907.36 911.99,907.21 913.14,923.41 914.32,915.18 915.47,898.26 
				916.62,897.48 917.79,895.76 918.94,891.46 920.12,890.78 921.27,793.38 922.44,770.73 923.59,731.86 924.77,706.68 
				925.92,679.86 927.07,678.21 928.24,676.71 929.39,634.53 930.57,601.76 931.72,579.68 932.89,560.76 934.04,503.81 
				935.22,506.06 936.37,501.53 937.52,500.93 938.69,313.48 939.84,258.06 941.02,196.08 942.17,160.33 943.34,157.56 
				944.49,162.91 945.67,204.48 946.82,46.76 947.97,50.48 949.14,55.83 950.29,28.93 951.47,30.68 952.62,31.16 953.79,95.76 
				954.94,190.86 956.12,239.61 957.27,282.98 958.42,415.38 959.59,416.91 960.74,417.86 961.92,601.96 963.07,645.58 
				964.24,683.48 965.39,734.11 966.57,751.08 967.72,751.28 968.87,750.58 970.04,623.93 971.19,644.83 972.37,664.28 
				973.52,677.88 974.69,688.53 975.84,687.63 977.02,688.51 978.17,839.31 979.32,848.71 980.49,873.01 981.64,874.23 
				982.82,915.18 983.97,916.48 985.14,916.66 986.29,945.23 987.47,941.71 988.62,938.98 989.77,930.71 990.94,927.23 
				992.09,927.71 993.27,927.68 994.42,939.06 995.59,938.83 			"/>
			<polyline class="st5" points="145.67,1089.26 146.84,1089.26 147.99,1087.73 149.17,1087.66 150.32,1084.68 151.49,1084.68 
				152.64,1084.51 153.79,1084.51 154.97,1083.56 156.12,1084.43 157.29,1084.43 158.44,1084.03 159.62,1085.83 			"/>
			<polyline class="st6" points="224.62,1084.61 224.62,1084.61 225.79,1083.46 226.94,1083.73 228.12,1083.71 229.27,1083.51 
				230.44,1083.36 231.59,1083.61 232.77,1082.76 233.92,1083.31 235.07,1082.76 236.24,1082.78 237.39,1082.81 238.57,1082.96 
				239.72,1082.88 240.89,1082.76 242.04,1082.46 243.22,1080.81 244.37,1080.23 245.52,1080.26 246.69,1080.23 247.84,1079.96 
				249.02,1079.38 250.17,1078.91 251.34,1078.08 252.49,1078.11 253.67,1078.06 254.82,1076.56 255.97,1079.21 257.14,1079.33 
				258.29,1079.43 259.47,1079.98 260.62,1078.98 261.79,1078.21 262.94,1079.83 264.12,1079.93 265.27,1078.56 266.42,1077.16 
				267.59,1075.91 268.74,1076.16 269.92,1076.91 271.07,1077.16 272.24,1076.21 273.39,1075.03 274.54,1075.26 275.72,1075.33 
				276.87,1073.93 278.04,1072.21 279.19,1072.76 280.37,1072.58 281.52,1072.01 282.69,1071.86 283.84,1071.18 284.99,1071.26 
				286.17,1074.03 287.32,1072.63 288.49,1071.03 289.64,1070.83 290.82,1069.56 291.97,1066.98 293.14,1065.33 294.29,1064.81 
				295.44,1064.36 296.62,1063.31 297.77,1061.81 298.94,1060.18 300.09,1059.31 301.27,1058.11 302.42,1053.96 303.59,1053.48 
				304.74,1052.06 305.89,1052.03 307.07,1050.43 308.22,1048.76 309.39,1047.31 310.54,1049.23 311.72,1049.56 312.87,1050.83 
				314.04,1049.58 315.19,1049.93 316.34,1048.66 317.52,1048.96 318.67,1050.18 319.84,1048.88 320.99,1048.91 322.17,1049.81 
				323.32,1051.18 324.49,1052.66 325.64,1051.31 326.79,1051.68 327.97,1051.76 329.12,1052.68 330.29,1050.81 331.44,1047.58 
				332.62,1044.46 333.77,1046.91 334.94,1047.31 336.09,1048.98 337.24,1047.63 338.42,1047.26 339.57,1048.38 340.74,1051.03 
				341.89,1048.86 343.07,1048.81 344.22,1050.26 345.39,1049.98 346.54,1049.91 347.69,1047.36 348.87,1045.26 350.02,1043.51 
				351.19,1044.51 352.34,1044.11 353.52,1040.88 354.67,1038.76 355.84,1038.93 356.99,1038.08 358.14,1037.96 359.32,1039.76 
				360.47,1040.83 361.64,1043.98 362.79,1049.18 363.97,1052.43 365.12,1051.98 366.27,1053.31 367.44,1051.83 368.59,1051.48 
				369.77,1049.26 370.92,1045.58 372.09,1046.86 373.24,1048.51 374.42,1046.11 375.57,1045.43 376.72,1045.93 377.89,1044.16 
				379.04,1045.06 380.22,1042.73 381.37,1039.43 382.54,1039.53 383.69,1039.78 384.87,1040.16 386.02,1036.56 387.17,1033.83 
				388.34,1032.06 389.49,1029.18 390.67,1027.73 391.82,1027.08 392.99,1026.08 394.14,1023.23 395.32,1023.51 396.47,1025.08 
				397.62,1024.08 398.79,1025.76 399.94,1024.86 401.12,1024.01 402.27,1024.13 403.44,1020.16 404.59,1015.81 405.77,1012.33 
				406.92,1009.63 408.07,1009.53 409.24,1008.86 410.39,999.78 411.57,996.31 412.72,993.76 413.89,988.78 415.04,975.73 
				416.22,961.58 417.37,961.83 418.52,952.13 419.69,936.46 420.84,926.28 422.02,929.78 423.17,932.63 424.34,944.68 
				425.49,941.51 426.67,944.38 427.82,949.58 428.97,947.13 430.14,945.93 431.29,942.81 432.47,942.83 433.62,925.48 
				434.79,920.56 435.94,911.48 437.12,910.31 438.27,896.01 439.42,867.08 440.59,870.03 441.74,884.41 442.92,862.78 
				444.07,857.06 445.24,841.68 446.39,813.51 447.57,818.31 448.72,809.51 449.87,803.53 451.04,808.46 452.19,801.31 
				453.37,801.31 454.52,840.21 455.69,858.38 456.84,844.46 457.99,841.86 459.17,830.46 460.32,823.56 461.49,816.68 
				462.64,798.78 463.82,778.28 464.97,777.08 466.14,788.83 467.29,793.28 468.44,797.83 469.62,790.13 470.77,778.41 
				471.94,789.18 473.09,792.11 474.27,794.68 475.42,799.81 476.59,803.78 477.74,805.18 478.89,812.66 480.07,816.66 
				481.22,825.51 482.39,824.51 483.54,817.91 484.72,809.73 485.87,810.03 487.04,810.03 488.19,872.31 489.34,873.16 
				490.52,883.03 491.67,880.66 492.84,874.13 493.99,874.73 495.17,874.73 496.32,838.01 497.49,828.26 498.64,820.61 
				499.79,830.33 500.97,806.58 502.12,779.31 503.29,758.86 504.44,712.38 505.62,702.91 506.77,710.61 507.94,704.76 
				509.09,704.11 510.24,721.63 511.42,743.68 512.57,770.58 513.74,787.83 514.89,799.98 516.07,813.76 517.22,832.63 
				518.39,849.33 519.54,861.36 520.69,865.91 521.87,870.68 523.02,873.71 524.19,873.73 525.34,883.51 526.52,875.46 
				527.67,873.03 528.84,877.06 529.99,880.31 531.14,882.66 532.32,880.48 533.47,882.78 534.64,896.58 535.79,907.21 
				536.97,915.56 538.12,919.53 539.29,925.63 540.44,931.16 541.59,934.21 542.77,941.81 543.92,943.03 545.09,950.53 
				546.24,949.68 547.42,951.68 548.57,957.61 549.72,968.88 550.89,977.03 552.04,980.93 553.22,978.28 554.37,985.21 
				555.54,989.71 556.69,990.08 557.87,980.21 559.02,977.83 560.17,978.28 561.34,978.41 562.49,983.31 563.67,984.46 
				564.82,986.78 565.99,989.83 567.14,991.98 568.32,994.98 569.47,1000.13 570.62,1003.41 571.79,1007.88 572.94,1010.03 
				574.12,1009.58 575.27,1013.88 576.44,1015.43 577.59,1016.96 578.77,1020.33 579.92,1020.13 581.07,1019.93 582.24,1023.21 
				583.39,1026.78 584.57,1026.38 585.72,1028.01 586.89,1028.46 588.04,1029.91 589.22,1029.48 590.37,1028.76 591.52,1029.01 
				592.69,1027.48 593.84,1025.86 595.02,1027.78 596.17,1027.61 597.34,1028.23 598.49,1027.23 599.67,1021.18 600.82,1020.56 
				601.97,1020.21 603.14,1020.21 604.29,1024.98 605.47,1025.98 606.62,1022.23 607.79,1023.08 608.94,1026.88 610.12,1028.38 
				611.27,1030.48 612.42,1027.28 613.59,1023.53 614.74,1022.43 615.92,1021.58 617.07,1018.16 618.24,1017.31 619.39,1019.11 
				620.57,1021.58 621.72,1026.43 622.87,1028.51 624.04,1031.21 625.19,1031.93 626.37,1035.61 627.52,1036.63 628.69,1037.98 
				629.84,1037.08 631.02,1038.01 632.17,1036.33 633.32,1035.41 634.49,1033.41 635.64,1034.66 636.82,1033.91 637.97,1031.78 
				639.14,1030.71 640.29,1030.66 641.44,1029.43 642.62,1029.96 643.77,1031.51 644.94,1032.91 646.09,1034.46 647.27,1033.03 
				648.42,1033.86 649.59,1037.43 650.74,1039.81 651.89,1042.31 653.07,1042.43 654.22,1041.91 655.39,1043.81 656.54,1044.33 
				657.72,1043.73 658.87,1044.93 660.04,1046.88 661.19,1048.81 662.34,1050.18 663.52,1050.81 664.67,1052.03 665.84,1054.46 
				666.99,1054.28 668.17,1054.86 669.32,1054.86 670.49,1058.38 671.64,1060.53 672.79,1058.48 673.97,1053.96 675.12,1052.66 
				676.29,1052.66 677.44,1053.93 678.62,1053.06 679.77,1053.06 680.94,1052.18 682.09,1052.96 683.24,1054.78 684.42,1055.21 
				685.57,1059.26 686.74,1059.81 687.89,1059.21 689.07,1061.91 690.22,1062.76 691.39,1062.76 692.54,1063.08 693.69,1065.93 
				694.87,1066.78 696.02,1066.51 697.19,1067.91 698.34,1067.78 699.52,1067.78 700.67,1067.78 701.84,1072.01 702.99,1069.41 
				704.14,1068.23 705.32,1068.11 706.47,1067.53 707.64,1067.53 708.79,1067.58 709.97,1067.71 711.12,1069.61 712.29,1069.88 
				713.44,1069.31 714.59,1069.18 715.77,1069.56 716.92,1069.56 718.09,1068.93 719.24,1063.66 720.42,1058.16 721.57,1055.01 
				722.74,1053.91 723.89,1054.38 725.04,1054.38 726.22,1050.86 727.37,1044.01 728.54,1040.68 729.69,1035.56 730.87,1032.08 
				732.02,1032.08 733.17,1032.08 734.34,1019.96 735.49,1015.71 736.67,1001.08 737.82,990.41 738.99,979.86 740.14,979.61 
				741.32,979.61 742.47,963.83 743.62,952.41 744.79,944.93 745.94,935.26 747.12,924.46 748.27,922.06 749.44,922.06 
				750.59,901.51 751.77,889.78 752.92,879.61 754.07,870.33 755.24,850.33 756.39,850.66 757.57,850.66 758.72,814.93 
				759.89,807.98 761.04,790.96 762.22,757.96 763.37,751.88 764.52,751.88 765.69,751.88 766.84,727.88 768.02,711.73 
				769.17,694.11 770.34,682.83 771.49,666.86 772.67,666.18 773.82,666.18 774.97,624.23 776.14,615.36 777.29,613.73 
				778.47,620.13 779.62,615.43 780.79,612.51 781.94,612.51 783.12,612.51 784.27,645.28 785.42,655.48 786.59,655.61 
				787.74,650.91 788.92,651.26 790.07,651.26 791.24,673.46 792.39,635.68 793.57,622.13 794.72,619.51 795.87,619.03 
				797.04,618.46 798.19,618.46 799.37,641.96 800.52,648.26 801.69,654.31 802.84,666.13 804.02,686.48 805.17,687.31 
				806.32,687.31 807.49,718.21 808.64,730.98 809.82,753.18 810.97,781.81 812.14,788.53 813.29,788.11 814.47,788.11 
				815.62,814.48 816.77,820.11 817.94,820.63 819.09,813.71 820.27,836.66 821.42,836.66 822.59,836.66 823.74,858.33 
				824.89,861.51 826.07,866.81 827.22,879.03 828.39,887.06 829.54,885.96 830.72,885.96 831.87,901.31 833.04,907.88 
				834.19,916.31 835.34,919.86 836.52,926.01 837.67,928.08 838.84,928.08 839.99,937.58 841.17,944.13 842.32,950.68 
				843.49,955.28 844.64,957.78 845.79,957.73 846.97,957.73 848.12,962.53 849.29,966.56 850.44,971.06 851.62,970.81 
				852.77,969.96 853.94,969.96 855.09,969.96 856.24,965.41 857.42,962.11 858.57,957.36 859.74,957.21 860.89,961.06 
				862.07,961.13 863.22,961.13 864.39,954.66 865.54,949.58 866.69,943.01 867.87,933.71 869.02,931.36 870.19,931.73 
				871.34,931.73 872.52,922.48 873.67,909.91 874.84,910.36 875.99,912.93 877.14,912.93 878.32,912.93 879.47,912.93 
				880.64,952.53 881.79,945.78 882.97,925.68 884.12,911.51 885.29,899.88 886.44,899.61 887.59,899.61 888.77,856.83 
				889.92,853.36 891.09,862.58 892.24,859.76 893.42,857.86 894.57,857.86 895.74,857.86 896.89,861.53 898.04,857.36 
				899.22,851.13 900.37,855.16 901.54,857.23 902.69,857.23 903.87,857.23 905.02,848.13 906.19,844.76 907.34,852.68 
				908.49,855.28 909.67,855.28 910.82,855.28 911.99,855.28 913.14,912.11 914.32,906.63 915.47,880.98 916.62,879.61 
				917.79,879.61 918.94,879.61 920.12,879.61 921.27,781.86 922.44,770.06 923.59,739.98 924.77,702.76 925.92,669.41 
				927.07,669.41 928.24,669.41 929.39,612.58 930.57,576.98 931.72,556.03 932.89,549.91 934.04,532.53 935.22,532.53 
				936.37,532.53 937.52,532.53 938.69,373.58 939.84,354.03 941.02,292.66 942.17,220.73 943.34,220.73 944.49,220.73 
				945.67,233.28 946.82,111.68 947.97,78.56 949.14,61.26 950.29,35.31 951.47,35.31 952.62,35.31 953.79,125.16 954.94,145.68 
				956.12,201.18 957.27,229.46 958.42,350.98 959.59,350.98 960.74,350.98 961.92,476.51 963.07,509.66 964.24,519.43 
				965.39,574.41 966.57,597.26 967.72,597.26 968.87,597.26 970.04,489.28 971.19,515.21 972.37,529.71 973.52,547.53 
				974.69,547.31 975.84,547.31 977.02,547.31 978.17,695.23 979.32,693.31 980.49,715.51 981.64,715.53 982.82,783.38 
				983.97,783.38 985.14,783.38 986.29,826.38 987.47,842.26 988.62,859.78 989.77,857.46 990.94,865.93 992.09,865.93 
				993.27,865.93 994.42,884.31 995.59,884.26 			"/>
			<g class="st7">
				<g>
					<polyline class="st8" points="93.42,1089.33 94.59,1089.33 95.42,1089.33 					"/>
					<polyline class="st9" points="97.39,1089.37 98.07,1089.38 99.24,1089.38 100.39,1089.38 101.54,1089.41 102.72,1089.41 
						103.87,1089.41 105.04,1089.38 106.19,1089.38 107.37,1089.38 108.52,1089.38 109.69,1089.38 110.84,1089.36 111.99,1089.36 
						113.17,1089.36 114.32,1089.38 115.49,1089.38 116.64,1089.41 117.82,1089.41 118.97,1089.41 120.14,1089.41 121.29,1089.41 
						122.44,1089.41 123.62,1089.41 124.77,1089.33 125.94,1089.33 127.09,1089.33 128.27,1089.28 129.42,1089.28 130.59,1089.28 
						131.74,1089.28 132.89,1089.31 134.07,1089.31 135.22,1089.21 136.39,1089.23 137.54,1089.26 138.72,1089.23 139.87,1089.23 
						141.04,1089.21 142.19,1089.21 143.34,1089.18 144.52,1089.18 145.67,1089.08 146.84,1089.03 147.99,1088.98 149.17,1088.91 
						150.32,1088.68 151.49,1088.43 152.64,1088.33 153.79,1088.23 154.97,1088.11 156.12,1088.01 157.29,1087.83 158.44,1087.68 
						159.62,1087.48 160.77,1087.11 161.94,1086.68 163.09,1086.18 164.24,1085.66 165.42,1085.06 166.57,1084.31 167.74,1083.71 
						168.89,1082.71 170.07,1081.81 171.22,1081.03 172.39,1080.36 173.54,1079.53 174.69,1078.03 175.87,1077.06 177.02,1075.86 
						178.19,1074.73 179.34,1073.53 180.52,1072.83 181.67,1071.98 182.82,1071.13 183.99,1070.58 185.14,1070.31 186.32,1070.06 
						187.47,1070.31 188.64,1070.23 189.79,1070.28 190.97,1070.81 192.12,1070.98 193.27,1070.96 194.44,1070.86 195.59,1070.81 
						196.77,1070.33 197.92,1069.68 199.09,1069.33 200.24,1068.68 201.42,1067.83 201.85,1067.33 					"/>
					<polyline class="st8" points="202.48,1066.58 202.57,1066.48 203.72,1065.01 204.89,1065.23 205.63,1064.91 					"/>
					<polyline class="st8" points="207.56,1064.71 208.37,1064.66 209.54,1064.81 210.69,1063.38 210.85,1063.33 					"/>
					<polyline class="st10" points="212.36,1062.98 213.02,1062.93 214.17,1062.96 215.34,1062.41 216.13,1062.3 					"/>
					<polyline class="st8" points="216.91,1062.19 217.67,1062.06 218.82,1061.63 219.84,1063.35 					"/>
					<polyline class="st11" points="221.48,1064.47 222.32,1065.46 223.47,1066.06 224.62,1065.76 225.79,1066.21 226.94,1066.38 
						228.12,1066.81 229.27,1067.28 230.44,1067.21 231.59,1067.03 232.77,1066.53 233.92,1066.68 235.07,1066.96 236.24,1067.03 
						237.39,1066.38 238.57,1066.08 239.72,1065.81 240.89,1065.93 242.04,1066.36 243.22,1066.06 244.37,1065.98 245.52,1065.98 
						246.69,1065.91 247.84,1065.31 249.02,1065.33 249.61,1065.05 					"/>
					<polyline class="st8" points="250.58,1064.77 251.34,1064.76 252.49,1064.31 253.67,1064.98 254.26,1065.25 					"/>
					<polyline class="st12" points="255.98,1065.6 257.14,1065.18 258.29,1065.13 259.47,1064.66 260.62,1063.83 261.79,1063.63 
						262.94,1063.56 264.12,1062.88 265.14,1062.64 					"/>
					<polyline class="st8" points="266.01,1062.41 266.42,1062.31 267.59,1061.26 268.74,1061.63 269.37,1062.11 					"/>
					<polyline class="st13" points="271.19,1062.26 272.24,1061.18 273.39,1059.86 274.54,1058.78 275.72,1057.63 276.87,1057.08 
						278.04,1056.73 279.19,1055.61 280.37,1053.96 281.52,1052.53 282.69,1051.03 283.84,1049.48 284.99,1048.28 286.17,1048.11 
						287.32,1047.41 288.49,1046.66 289.64,1045.31 290.82,1043.66 291.97,1041.56 293.14,1039.61 294.29,1037.56 295.44,1035.51 
						296.62,1033.28 297.77,1030.83 298.94,1028.98 300.09,1028.38 301.27,1026.76 302.42,1026.23 303.59,1025.46 304.74,1023.88 
						305.89,1023.23 307.07,1022.11 308.22,1020.38 309.39,1019.41 310.54,1018.91 311.72,1018.38 312.87,1018.68 314.04,1018.61 
						315.19,1018.21 316.34,1018.36 317.52,1018.63 318.67,1019.71 319.84,1020.71 320.83,1021.63 					"/>
					<polyline class="st8" points="321.74,1022.05 322.17,1022.21 323.32,1023.23 324.49,1022.31 324.92,1022.03 					"/>
					<polyline class="st14" points="326.75,1021.53 326.79,1021.53 327.97,1021.83 329.12,1022.36 330.29,1021.96 331.44,1022.28 
						332.62,1022.56 333.77,1023.86 334.94,1025.08 336.09,1026.78 337.24,1027.71 338.42,1027.71 339.57,1028.46 340.43,1029.1 
											"/>
					<polyline class="st8" points="341.34,1029.32 341.89,1029.31 343.07,1030.16 344.22,1029.33 344.78,1029.18 					"/>
					<polyline class="st8" points="346.42,1028.74 346.54,1028.71 347.69,1027.23 348.87,1027.38 349.57,1026.96 					"/>
					<polyline class="st15" points="351.11,1026.64 351.19,1026.63 352.34,1026.16 353.52,1025.93 354.67,1025.36 354.92,1025.28 
											"/>
					<polyline class="st8" points="355.7,1025.05 355.84,1025.01 356.99,1023.56 358.14,1023.83 358.86,1024.23 					"/>
					<polyline class="st16" points="360.65,1025.84 361.64,1027.41 362.79,1030.06 363.35,1031.27 					"/>
					<polyline class="st8" points="363.85,1032.38 363.97,1032.63 365.12,1033.91 366.27,1033.56 367.03,1033.33 					"/>
					<polyline class="st17" points="368.79,1032.29 369.77,1030.66 370.92,1027.41 372.09,1025.01 373.24,1022.68 374.42,1020.98 
						375.57,1020.13 376.72,1019.08 377.89,1018.11 379.04,1016.68 380.22,1015.36 381.37,1014.36 382.54,1014.01 383.69,1014.11 
						384.87,1014.06 386.02,1012.83 387.17,1012.16 388.31,1011.16 					"/>
					<polyline class="st8" points="389.11,1010.48 389.49,1010.16 390.67,1009.23 391.82,1009.61 392.99,1008.98 393.57,1008.63 
											"/>
					<polyline class="st18" points="394.65,1006.87 395.32,1005.01 396.47,1002.33 397.62,998.61 398.79,995.41 399.94,993.18 
						401.12,990.76 402.27,988.76 403.44,987.11 404.44,983.94 					"/>
					<polyline class="st8" points="404.85,982.93 405.77,981.16 406.92,981.21 407.73,980.94 					"/>
					<polyline class="st19" points="409.31,979.87 410.39,976.93 411.57,974.73 412.72,973.01 413.89,970.16 415.04,966.08 
						416.22,963.98 417.37,961.66 418.52,958.23 419.69,953.21 420.84,949.03 422.02,944.53 423.17,942.23 424.34,940.96 
						425.49,937.03 426.67,932.96 427.82,927.78 428.97,920.58 430.14,910.16 431.29,900.68 432.47,894.18 433.62,887.91 
						434.79,878.91 435.94,869.06 437.12,861.96 438.27,851.91 439.42,844.36 440.59,839.96 441.74,833.73 442.92,827.01 
						444.07,820.46 445.24,815.08 445.5,814.26 					"/>
					<polyline class="st8" points="445.8,813.32 446.39,811.41 446.96,813.32 					"/>
					<polyline class="st8" points="447,813.44 447.57,815.36 448.72,815.36 449.39,814.83 					"/>
					<polyline class="st8" points="450.38,814.13 451.04,813.71 452.19,813.31 452.86,815.19 					"/>
					<polyline class="st20" points="453.41,817.17 454.52,833.51 455.69,840.18 456.84,845.01 457.99,852.23 458.35,852.89 					"/>
					<polyline class="st8" points="458.85,853.8 459.17,854.38 460.32,855.06 460.68,853.09 					"/>
					<polyline class="st21" points="461.02,851.21 461.49,848.58 462.64,832.93 463.82,825.46 464.97,823.86 466.14,821.98 
						467.29,819.81 467.57,818.91 					"/>
					<polyline class="st8" points="467.85,817.99 468.44,816.08 469.62,817.01 469.88,817.44 					"/>
					<polyline class="st8" points="471.62,820.61 471.94,821.26 473.09,821.81 473.64,823.73 					"/>
					<polyline class="st8" points="473.72,823.99 474.27,825.91 475.42,826.18 475.92,826.83 					"/>
					<polyline class="st8" points="477.12,828.19 477.74,828.76 478.89,828.86 479.58,830.74 					"/>
					<polyline class="st22" points="480.28,832.53 481.22,834.51 482.39,837.43 483.54,840.73 484.72,842.16 485.87,845.46 
						487.04,851.61 488.19,869.43 489.34,881.53 490.15,887.99 					"/>
					<polyline class="st8" points="490.27,888.95 490.52,890.93 491.67,890.08 491.99,889.61 					"/>
					<polyline class="st23" points="493.01,887.85 493.99,884.86 495.17,877.18 496.32,867.33 497.49,857.98 498.64,853.23 
						499.79,848.68 500.97,844.78 502.12,838.91 503.29,831.66 504.36,822.15 					"/>
					<polyline class="st8" points="504.57,821.16 505.62,819.46 506.77,819.66 507.94,819.56 508.27,821.53 					"/>
					<polyline class="st24" points="508.61,823.53 509.09,826.46 510.24,836.26 511.42,848.51 512.57,856.38 513.74,863.01 
						514.89,870.18 516.07,879.63 517.22,887.88 518.39,890.41 519.54,896.61 520.69,900.48 521.87,906.23 523.02,910.16 
						524.19,910.93 525.34,913.18 526.52,918.53 527.67,922.93 528.84,927.48 529.99,931.86 531.14,936.63 532.32,940.71 
						533.47,944.58 534.64,949.28 535.79,953.83 536.97,958.03 538.12,960.73 539.29,964.06 540.44,967.31 541.59,969.43 
						542.77,972.46 543.92,977.41 545.09,981.18 546.24,983.66 547.42,985.96 548.57,990.78 549.72,997.03 550.89,1003.08 
						552.04,1008.81 553.22,1013.88 554.12,1016.16 					"/>
					<polyline class="st8" points="554.53,1017.08 555.54,1018.81 556.69,1018.56 557.29,1017.99 					"/>
					<polyline class="st8" points="558.52,1016.67 559.02,1016.08 560.17,1015.66 561.34,1016.38 561.85,1016.74 					"/>
					<polyline class="st25" points="563.42,1017.94 563.67,1018.13 564.82,1020.16 565.99,1021.23 567.14,1022.58 568.32,1024.68 
						569.47,1026.48 570.62,1027.83 571.79,1030.16 572.94,1031.41 574.12,1032.61 575.27,1033.38 576.44,1033.41 577.59,1033.56 
						578.23,1033.9 					"/>
					<polyline class="st8" points="579.15,1034.24 579.92,1034.36 581.07,1034.76 582.24,1034.16 582.92,1034.11 					"/>
					<polyline class="st26" points="583.97,1034.07 584.57,1034.06 585.72,1035.11 586.16,1035.26 					"/>
					<polyline class="st8" points="586.66,1035.43 586.89,1035.51 588.04,1036.83 589.22,1035.66 589.39,1035.37 					"/>
					<polyline class="st27" points="590.66,1033.6 591.52,1033.36 592.69,1032.73 593.84,1031.93 595.02,1032.08 596.17,1031.58 
						597.34,1031.76 598.49,1031.56 599.67,1030.61 600.82,1030.41 601.97,1029.91 601.98,1029.91 					"/>
					<polyline class="st8" points="603.04,1030.27 603.14,1030.31 604.29,1031.81 605.47,1031.58 606.19,1031.22 					"/>
					<polyline class="st28" points="608.07,1030.39 608.94,1029.93 610.12,1029.31 611.27,1029.16 612.42,1028.23 613.59,1026.18 
						614.74,1025.43 615.92,1024.81 617.07,1024.51 618.24,1024.41 619.39,1024.86 620.57,1025.66 621.72,1027.06 622.87,1027.76 
						624.04,1029.06 625.19,1030.43 626.37,1031.48 627.52,1032.36 628.69,1033.96 629.84,1034.68 631.02,1035.06 632.17,1035.33 
						633.32,1035.51 634.49,1036.01 635.64,1036.33 636.82,1037.46 637.97,1038.01 639.14,1038.88 640.29,1039.83 641.44,1040.88 
						642.62,1041.86 643.77,1042.81 644.94,1044.41 646.09,1044.76 647.27,1045.68 648.42,1046.63 649.59,1048.13 650.74,1049.03 
						651.89,1049.73 653.07,1051.08 654.22,1051.91 655.39,1052.66 656.54,1053.61 657.72,1054.13 658.87,1054.83 660.04,1055.28 
						661.19,1056.36 662.34,1056.58 663.52,1057.76 664.67,1058.53 665.84,1059.63 666.99,1060.08 668.17,1060.78 669.32,1061.91 
						670.49,1065.01 671.64,1066.36 672.79,1066.86 673.97,1067.58 674.67,1067.87 					"/>
					<polyline class="st8" points="675.65,1068.19 676.29,1068.36 677.44,1069.03 678.62,1068.33 679.23,1068.17 					"/>
					<polyline class="st29" points="681.27,1068.01 682.09,1068.13 683.24,1068.46 684.42,1068.66 685.57,1069.38 686.74,1069.81 
						687.89,1069.96 689.07,1070.63 690.22,1070.91 691.39,1070.81 692.54,1071.03 693.69,1071.53 694.87,1071.68 696.02,1071.51 
						697.19,1071.71 698.34,1071.58 699.52,1071.36 700.67,1071.41 701.84,1071.53 702.99,1071.56 703.91,1070.73 					"/>
					<polyline class="st8" points="704.82,1070.29 705.32,1070.13 706.47,1069.21 707.64,1069.38 708.46,1069.42 					"/>
					<polyline class="st8" points="709.16,1069.52 709.97,1069.71 711.12,1069.91 712.29,1068.88 712.65,1068.62 					"/>
					<polyline class="st30" points="713.59,1067.74 714.59,1065.73 715.58,1065.33 					"/>
					<polyline class="st8" points="716.22,1065.2 716.92,1065.11 718.09,1064.56 718.74,1062.67 					"/>
					<polyline class="st31" points="719.24,1061.22 719.24,1061.21 720.42,1058.23 721.57,1056.46 722.64,1053.54 					"/>
					<polyline class="st8" points="723.15,1053.03 723.89,1052.61 725.04,1052.58 725.83,1050.74 					"/>
					<polyline class="st32" points="726.66,1049.07 727.37,1047.83 728.54,1043.36 729.69,1039.66 730.84,1033.76 					"/>
					<polyline class="st8" points="731.43,1033.06 732.02,1032.46 733.17,1032.28 733.54,1030.32 					"/>
					<polyline class="st33" points="733.94,1028.25 734.34,1026.11 735.49,1020.73 736.67,1014.03 737.82,1008.73 738.51,1004.42 
											"/>
					<polyline class="st8" points="738.68,1003.38 738.99,1001.41 740.14,1000.61 740.61,1000.23 					"/>
					<polyline class="st34" points="741.51,998.52 742.47,992.76 743.62,987.31 744.79,980.13 745.94,974.43 746.9,969.01 					"/>
					<polyline class="st8" points="747.08,967.99 747.12,967.78 748.27,966.41 749.44,966.58 749.66,964.59 					"/>
					<polyline class="st35" points="749.86,962.66 750.59,955.86 751.77,950.76 752.92,941.68 754.07,936.63 755.2,929.05 					"/>
					<polyline class="st8" points="755.78,928.33 756.39,927.81 757.57,927.58 757.86,925.6 					"/>
					<polyline class="st36" points="758.13,923.77 758.72,919.76 759.89,915.51 761.04,909.33 762.22,903.21 763.37,897.36 					"/>
					<polyline class="st8" points="764,896.67 764.52,896.11 765.69,895.73 766.01,893.76 					"/>
					<polyline class="st37" points="766.3,892.01 766.84,888.66 768.02,884.36 769.17,879.83 770.34,877.11 771.48,872.33 					"/>
					<polyline class="st8" points="772.18,871.82 772.67,871.51 773.82,870.68 774.12,868.7 					"/>
					<polyline class="st38" points="774.42,866.65 774.97,863.01 776.14,857.28 777.29,850.31 778.47,846.86 779.62,844.18 
						780.23,843.76 					"/>
					<polyline class="st8" points="781.14,843.31 781.94,843.21 783.12,843.36 783.29,845.35 					"/>
					<polyline class="st39" points="783.46,847.22 784.27,856.38 785.42,859.63 786.59,860.48 787.04,862.3 					"/>
					<polyline class="st8" points="787.27,863.22 787.74,865.16 788.92,864.93 790.07,865.13 790.54,867.08 					"/>
					<polyline class="st8" points="790.77,868.04 791.24,869.98 791.41,867.99 					"/>
					<polyline class="st40" points="791.6,865.75 792.39,856.28 792.96,853.47 					"/>
					<polyline class="st8" points="793.18,852.37 793.57,850.41 794.72,850.98 795.32,852.89 					"/>
					<polyline class="st8" points="796.67,855.62 797.04,856.08 798.19,856.88 798.41,858.87 					"/>
					<polyline class="st41" points="798.63,860.87 799.37,867.73 800.52,870.28 801.69,874.46 802.84,877.16 804.02,882.58 
						804.31,883.04 					"/>
					<polyline class="st8" points="804.85,883.89 805.17,884.38 806.32,885.21 806.63,887.18 					"/>
					<polyline class="st42" points="806.94,889.22 807.49,892.78 808.64,894.03 809.82,897.56 810.97,901.03 812.14,905.41 
						812.32,905.66 					"/>
					<polyline class="st8" points="812.91,906.51 813.29,907.06 814.47,907.68 814.92,909.63 					"/>
					<polyline class="st43" points="815.42,911.76 815.62,912.61 816.77,915.61 817.94,918.71 819.09,920.46 820.08,922.81 					"/>
					<polyline class="st8" points="820.78,923.6 821.42,924.03 822.59,924.38 823.12,926.31 					"/>
					<polyline class="st44" points="823.73,928.51 823.74,928.56 824.89,932.36 826.07,936.08 827.22,939.18 827.57,940.45 					"/>
					<polyline class="st8" points="827.87,941.55 828.39,943.48 829.54,943.78 830.04,944.43 					"/>
					<line class="st45" x1="830.77" y1="945.56" x2="831.38" y2="948.94"/>
					<polyline class="st8" points="831.51,949.62 831.87,951.58 833.04,951.81 833.67,953.71 					"/>
					<polyline class="st46" points="834.34,955.53 835.34,957.08 836.4,959.92 					"/>
					<polyline class="st8" points="837.09,960.53 837.67,960.83 838.84,961.48 839.39,963.41 					"/>
					<polyline class="st8" points="839.45,963.63 839.99,965.56 841.17,964.86 842.32,965.66 842.91,965.77 					"/>
					<polyline class="st47" points="843.81,966.19 844.64,967.01 845.73,967.96 					"/>
					<polyline class="st8" points="846.24,968.05 846.97,968.11 848.12,968.63 849.29,968.08 850.44,968.93 851.62,968.33 
						852.19,967.96 					"/>
					<polyline class="st8" points="853.25,967.43 853.94,967.21 855.09,966.66 856.24,967.61 856.86,965.71 					"/>
					<polyline class="st48" points="857.67,963.19 858.57,960.28 859.74,957.48 860.18,957.19 					"/>
					<polyline class="st8" points="861.35,956.77 862.07,956.86 863.22,957.41 864.39,955.98 864.45,955.84 					"/>
					<polyline class="st49" points="865.09,954.17 865.54,952.98 866.69,950.63 867.87,948.98 869.02,946.33 869.9,945.75 					"/>
					<polyline class="st8" points="870.73,945.64 871.34,945.73 872.52,946.46 873.67,945.96 874.4,946.11 					"/>
					<polyline class="st50" points="875.92,947.45 875.99,947.53 877.14,953.88 878.32,955.76 879.47,957.18 880.43,970.64 					"/>
					<polyline class="st8" points="880.5,971.69 880.64,973.68 881.15,971.75 					"/>
					<polyline class="st51" points="881.67,969.74 881.79,969.28 882.97,963.23 884.12,953.66 885.29,941.81 885.93,939.97 					"/>
					<polyline class="st8" points="886.28,938.99 886.44,938.51 887.59,937.56 887.74,935.56 					"/>
					<line class="st52" x1="887.89" y1="933.34" x2="888.76" y2="921.11"/>
					<polyline class="st8" points="889.42,920.25 889.92,919.71 891.09,919.23 891.75,921.12 					"/>
					<polyline class="st8" points="892.72,923.83 893.42,925.71 894.57,925.98 895.74,926.66 896.22,928.6 					"/>
					<polyline class="st53" points="896.77,930.83 896.89,931.33 898.04,932.78 899.22,935.41 899.65,935.68 					"/>
					<polyline class="st8" points="900.52,936.39 901.54,938.11 902.69,938.26 903.87,937.26 905.02,937.36 905.89,935.56 					"/>
					<polyline class="st54" points="906.89,933.96 907.34,933.33 908.49,927.68 909.67,922.93 910.57,918.41 					"/>
					<polyline class="st8" points="910.76,917.48 910.82,917.18 911.99,915.96 913.14,917.18 913.3,915.19 					"/>
					<polyline class="st55" points="913.46,913.19 914.32,902.41 915.47,878.83 916.62,849.61 917.79,826.46 918.94,822.96 
						920.12,809.91 921.27,743.96 922.44,706.13 923.59,661.51 924.77,633.23 925.92,598.86 927.07,592.76 928.24,590.41 
						929.39,521.38 930.57,488.01 931.72,441.31 932.89,412.43 934.04,375.18 935.22,361.73 936.37,360.23 937.52,355.16 
						938.69,347.13 939.84,291.31 940.07,291 					"/>
					<polyline class="st8" points="940.66,290.19 941.02,289.71 942.17,288.91 942.47,290.89 					"/>
					<polyline class="st56" points="942.75,292.75 943.34,296.71 944.49,301.76 945.58,336.99 					"/>
					<polyline class="st8" points="945.61,337.93 945.67,339.93 945.75,337.93 					"/>
					<line class="st57" x1="945.82" y1="335.93" x2="946.7" y2="312.93"/>
					<polyline class="st8" points="946.74,311.93 946.82,309.93 946.94,311.93 					"/>
					<polyline class="st58" points="947.06,313.92 947.97,329.23 949.14,347.98 950.29,384.13 951.47,400.23 952.62,409.53 
						953.79,469.28 954.94,493.78 956.12,547.36 957.27,579.36 958.42,634.08 959.59,648.36 960.74,653.88 961.92,705.23 
						963.07,724.76 964.24,767.06 965.39,788.58 966.57,810.28 967.72,813.36 968.87,816.98 970.04,839.46 971.19,853.06 
						972.37,890.13 973.52,902.83 974.69,913.96 975.84,915.58 977.02,918.01 978.17,931.96 979.32,948.58 980.49,964.06 
						981.64,969.53 982.82,980.48 982.98,980.69 					"/>
					<polyline class="st8" points="983.6,981.47 983.97,981.93 985.14,982.71 985.43,984.69 					"/>
					<polyline class="st59" points="985.73,986.85 986.29,990.78 987.47,992.26 988.62,1001.03 989.77,1006.51 990.87,1011.24 					
						"/>
					<polyline class="st8" points="991.54,1012.05 992.09,1012.53 993.27,1013.01 993.54,1014.99 					"/>
					<line class="st60" x1="993.78" y1="1016.82" x2="994.4" y2="1021.4"/>
					<line class="st8" x1="994.74" y1="1022.25" x2="995.59" y2="1024.06"/>
				</g>
			</g>
		</g>
		<g id="Axis_ticks">
			<line class="st61" x1="26.47" y1="1089.41" x2="48.32" y2="1089.41"/>
			<line class="st61" x1="70.22" y1="1089.41" x2="70.22" y2="1098.02"/>
			<line class="st61" x1="918.94" y1="1089.61" x2="918.94" y2="1100.26"/>
		</g>
		<g id="Axis_Labels">
			<text transform="matrix(1 0 0 1 23.3189 689.7567)" class="st62 st63 st64">100</text>
			<text transform="matrix(1 0 0 1 26.5913 292.6043)" class="st62 st63 st64">200</text>
			<g>
				<text transform="matrix(1 0 0 1 26.1187 1118.4089)" class="st62 st63 st64">Jan 2020</text>
			</g>
			<g>
				<text transform="matrix(1 0 0 1 237.4195 1118.4089)" class="st62 st63 st64">July 2020</text>
			</g>
			<g>
				<text transform="matrix(1 0 0 1 451.0679 1118.4089)" class="st62 st63 st64">Jan 2021</text>
			</g>
			<g>
				<text transform="matrix(1 0 0 1 661.2183 1118.4089)" class="st62 st63 st64">July 2021</text>
			</g>
			<g>
				<text transform="matrix(1 0 0 1 874.8433 1118.4089)" class="st62 st63 st64">Jan 2022</text>
			</g>
		</g>
		<g id="date_lines">
			<line class="st65" x1="145.67" y1="1089.26" x2="145.67" y2="986.49"/>
		</g>
		<line class="st61" x1="495.17" y1="1089.43" x2="495.17" y2="1098.04"/>
		<line class="st61" x1="705.32" y1="1089.41" x2="705.32" y2="1098.02"/>
		<line class="st61" x1="281.52" y1="1089.26" x2="281.52" y2="1097.87"/>
		<text transform="matrix(1 0 0 1 24.2183 243.3358)"><tspan x="0" y="0" class="st63 st67">NEW CASES </tspan><tspan x="0" y="21" class="st63 st67">PER 100K PEOPLE</tspan></text>
		<text transform="matrix(1 0 0 1 23.3179 49.5721)" class="st63 st68">The Hardest Hit Region of a Hard-Hit State</text>
		<text transform="matrix(1 0 0 1 23.3189 79.865)" class="st63 st69">Eastern Kentucky has seen abnormally high COVID rates throughout the pandemic. </text>
		<text transform="matrix(1 0 0 1 48.3189 951.3045)"><tspan x="0" y="0" class="st63 st64">March 6, 2020:</tspan><tspan x="0" y="24" class="st63 st64">First case in KY </tspan></text>
		<text transform="matrix(1 0 0 1 554.1089 828.576)" class="st63 st64">Delta peaks nationally</text>
		<line class="st70" x1="585.72" y1="610.3" x2="778.44" y2="611.57"/>
		<line class="st70" x1="582.03" y1="662.2" x2="774.76" y2="663.47"/>
		<text transform="matrix(1 0 0 1 526.0054 602.8221)" class="st63 st64">Delta peaks in Eastern KY</text>
		<text transform="matrix(1 0 0 1 529.6812 652.0604)" class="st63 st64">Delta peaks in Western KY</text>
		<line class="st70" x1="581.98" y1="843.24" x2="774.71" y2="844.52"/>
		<line class="st70" x1="747.92" y1="288.14" x2="940.65" y2="289.42"/>
		<text transform="matrix(1 0 0 1 689.9879 278.7879)" class="st63 st64">Omicron peaks nationally</text>
		<line class="st70" x1="779.06" y1="488.76" x2="971.79" y2="490.04"/>
		<text transform="matrix(1 0 0 1 642.1988 463.1561)"><tspan x="0" y="0" class="st63 st64">Slower Omicron recovery </tspan><tspan x="0" y="24" class="st63 st64">in Eastern KY</tspan></text>
	</g>
</g>
<g id="ai2html-settings">
</g>
</svg>
